<svg width="100" height="100" viewBox="0 0 100 100" fill="none" xmlns="http://www.w3.org/2000/svg">
  <defs>
    <linearGradient id="dragonGradient" x1="0%" y1="0%" x2="100%" y2="100%">
      <stop offset="0%" style="stop-color:#F59E0B;stop-opacity:1" />
      <stop offset="50%" style="stop-color:#EC4899;stop-opacity:1" />
      <stop offset="100%" style="stop-color:#3B82F6;stop-opacity:1" />
    </linearGradient>
  </defs>
  
  <!-- Dragon silhouette forming letter D with wings and spikes -->
  <path d="M30 20 L30 80 C30 85 32 88 38 88 C48 88 58 82 62 75 L68 82 L72 78 L68 68 C72 62 75 55 75 45 C75 35 72 28 68 22 L72 12 L68 8 L62 15 C58 8 48 2 38 2 C32 2 30 5 30 10 Z M40 15 L52 20 L48 28 L40 25 Z M40 40 C42 40 44 42 44 45 C44 48 42 50 40 50 C38 50 36 48 36 45 C36 42 38 40 40 40 Z M45 60 L52 70 L45 72 Z" 
        fill="url(#dragonGradient)" 
        stroke="none"/>
</svg>